<svg width="76" height="75" viewBox="0 0 76 75" fill="none" xmlns="http://www.w3.org/2000/svg">
<g clip-path="url(#clip0_9856_16620)">
<path d="M39.5044 65.5573C36.8821 58.2558 31.2767 52.6263 25.7434 47.4058C21.5333 43.5686 17.3953 39.4186 12.1508 37.1331C10.2743 36.3392 7.72414 35.9904 6.59342 37.1331L6.71371 36.9888L6.3769 37.5662L6.42502 37.4459C5.93184 39.2021 6.59342 41.1748 7.44747 42.931C12.3913 51.7121 19.6568 59.2542 27.68 65.3047C30.8557 67.4699 34.4042 70.6095 38.494 69.8035C38.3857 69.8757 39.0473 69.4787 39.0473 69.4908C38.927 69.6351 39.4563 68.9976 39.4443 69.0217C39.9134 68.0593 39.8051 66.652 39.4804 65.5213L39.5164 65.5453L39.9495 65.8701L39.5044 65.5694L39.5285 65.5573C39.9254 66.8444 40.2863 68.5646 39.2157 69.6712C31.83 74.8797 1.93825 45.1203 5.37851 37.1331C5.43865 36.9407 5.73937 36.5317 5.82358 36.3512L5.89575 36.2911L6.40096 35.8821C12.9808 33.0914 21.9062 42.7025 26.2967 46.8284C31.7338 52.1812 37.2791 58.0874 39.5044 65.5573Z" fill="#01050F"/>
<path d="M38.1812 37.6504C30.6993 45.3969 30.6271 58.7971 39.7209 65.2686L39.8172 65.3408C40.0096 65.9783 40.166 66.6159 40.2021 67.3135C40.2382 67.9751 40.166 68.7209 39.8292 69.3344L39.4202 69.8396L39.3841 69.8877L39.324 69.9238L38.7466 70.2606L38.7105 70.2847C36.5092 70.9342 34.32 70.1524 32.4675 69.2622C23.4699 64.2342 15.9158 56.8965 9.81716 48.6447C7.55573 45.3007 4.30794 41.4034 5.40257 37.0609L5.43865 37.0008L5.77546 36.4234L5.82358 36.3392L5.89575 36.2791L6.40096 35.8701L6.46111 35.822C13.3055 33.332 21.7498 42.5822 26.3809 46.7682C31.9022 52.097 37.4956 57.9551 39.8653 65.4611L40.2021 66.5678C28.9912 58.8452 30.988 44.6512 38.1933 37.6624L38.1812 37.6504ZM38.1812 37.6504C31.7939 44.1941 29.5565 57.7987 39.7209 65.2566L39.1435 65.6656C36.7017 58.3761 31.1083 52.7105 25.6712 47.4779C22.8805 44.8196 20.1018 42.1852 17.0104 39.9719C14.1596 38.0473 10.4306 35.5212 6.96632 36.7963C7.36327 36.5076 6.5814 37.1331 6.59342 37.1331L6.72574 36.9888L6.38893 37.5662L6.43705 37.4459C5.59503 41.2831 8.6263 44.9399 10.6832 48.0192C16.5894 56.1628 24.1195 63.4282 32.8404 68.4683C34.7049 69.5389 37.6881 70.1283 38.8067 69.3344L39.2277 68.8292C39.5044 68.2759 39.5405 66.688 39.1556 65.6415L39.2879 65.834C30.0136 59.0377 30.3384 45.3849 38.1812 37.6504Z" fill="#01050F"/>
<path d="M70.6712 33.6808C61 26.9928 46.9142 29.3625 38.8549 37.506L38.3256 36.9767C44.6768 30.5774 54.4322 27.7025 63.2494 29.7835C66.1844 30.4812 68.9992 31.7562 71.429 33.5726L70.6111 34.162C68.2173 27.0289 62.7682 21.4354 57.4755 16.251C53.0008 12.0168 44.7851 3.39214 38.506 5.14836L38.6504 5.06415L38.1572 5.47314L38.2654 5.34082L37.9286 5.90617C35.6431 13.3641 62.1307 40.7779 70.154 38.2759C70.0698 38.324 70.7915 37.903 70.6953 37.9751C70.6953 37.9751 71.1524 37.4338 71.1042 37.494L71.3569 36.8444C71.5012 35.9543 71.3569 34.9078 71.1042 34.0176L70.6712 33.6929V33.6808ZM70.6712 33.6808L71.1163 33.9936C71.405 34.9078 71.5734 35.8941 71.4411 36.8685L71.2125 37.5301C71.2125 37.5301 70.8156 38.0353 70.8035 38.0473C70.8035 38.0473 70.2382 38.3841 70.2261 38.3961H70.2141C62.5156 41.5838 32.3352 12.3176 37.4234 4.83561L37.4715 4.76343L37.5437 4.70329L38.0369 4.29431L38.097 4.24619C38.1572 4.22213 38.8067 3.98156 38.8789 3.9575C46.6616 3.40417 52.9647 10.6937 58.2454 15.4571C60.988 18.0794 63.6704 20.7979 66.016 23.8172C68.7346 27.2334 70.9358 31.1548 72.1267 35.425L70.8035 34.4266C61.3488 27.3176 47.0946 29.4346 38.8669 37.518L38.3376 36.9888C46.6736 28.749 61.012 26.656 70.6832 33.6929L70.6712 33.6808Z" fill="#01050F"/>
<path d="M76 39.4787C74.7129 37.3737 72.9808 35.5573 71.008 34.1259L71.2606 33.9575C71.5493 34.8957 71.7538 35.9182 71.5974 36.9286L71.3689 37.5902V37.6263L71.3448 37.6624L70.9479 38.1676L70.9238 38.2037C65.7875 41.5718 53.2294 29.9639 49.5245 26.3432C45.7835 22.494 33.911 10.1524 37.4354 4.7514C37.5437 4.6672 37.9767 4.30633 38.073 4.22213C38.2053 4.17402 38.7827 3.94547 38.915 3.92141C46.7097 3.45229 52.9286 10.7298 58.1251 15.5774C63.4539 20.8581 68.8789 26.68 71.1163 34.0056C68.518 26.8244 63.0208 21.2911 57.5958 16.1307C53.482 12.3176 49.4403 8.23977 44.3039 5.90617C42.5116 5.00401 39.5646 4.67923 38.6744 5.10024L38.1812 5.50922L38.3015 5.36488L37.9767 5.94226C35.6191 13.2318 63.4539 41.8605 70.563 37.8669L70.984 37.3737L70.9479 37.4338C71.4411 36.4354 71.2727 35.2085 70.9479 34.0537L70.8156 33.5846C72.9326 35.1724 74.749 37.1692 76 39.4908V39.4787Z" fill="#01050F"/>
<path d="M41.2486 72.8589C33.49 68.733 26.7538 62.9591 20.4146 56.9326C14.1957 50.7739 8.48196 44.0016 4.10345 36.3873C14.3881 50.4491 26.9463 62.899 41.2486 72.8468V72.8589Z" fill="#01050F"/>
<path d="M42.1508 67.2414C42.5958 68.733 42.9447 70.6696 41.7177 71.8966C40.5148 72.7265 38.927 72.6063 37.5437 72.4138C31.7578 71.0545 27.1748 66.8565 22.7121 63.1756C17.2991 58.6287 12.247 53.6006 8.16921 47.8027C5.69126 43.8933 1.84202 39.5629 3.06897 34.571L3.502 33.8492L3.55012 33.765L3.62229 33.7049L4.19968 33.2358C5.33039 32.6584 6.6656 32.6223 7.84443 32.7426C13.4379 33.8372 17.7562 37.915 21.9663 41.4395C27.0064 45.7338 31.6135 50.5453 35.6071 55.814C38.2414 59.3144 40.8276 62.9952 42.1387 67.2293L42.1508 67.2414ZM42.1508 67.2414C40.7915 63.0313 38.1692 59.3865 35.4988 55.9222C31.433 50.7257 26.6576 46.1187 21.5333 41.9808C17.3352 38.6969 13.0529 34.8356 7.70008 33.7771C6.67763 33.6688 5.65517 33.753 4.75301 34.1379L4.8733 34.0658L4.29591 34.5469L4.4162 34.4026L4.03127 35.0642C3.17723 38.9014 6.67763 43.749 8.98717 47.2253C12.9808 52.9751 17.7803 58.1716 23.0249 62.8027C27.3673 66.6038 31.7939 70.9222 37.5557 72.3176C38.927 72.5341 40.5028 72.6544 41.6816 71.8605C42.8605 70.7057 42.5718 68.745 42.1387 67.2534L42.1508 67.2414Z" fill="#01050F"/>
<path d="M33.1051 56.7041C33.3216 57.4018 33.4659 58.4483 32.648 58.8091C28.5942 59.2181 25.4787 55.5854 22.676 53.1676C21.2446 51.8444 19.7771 50.4852 18.5501 48.8974C17.2991 47.2374 16.0601 45.2285 16.5293 43.0032L16.5774 42.931L16.7458 42.6544C16.7939 42.5341 17.0225 42.4018 17.1067 42.3055L17.1788 42.2454L17.263 42.2093C17.3713 42.1852 17.6119 42.0529 17.7201 42.065C21.6656 41.9808 24.3841 45.409 26.9824 47.8629C29.4723 50.4491 31.9623 53.2638 33.1171 56.7161L33.1051 56.7041ZM33.1051 56.7041C31.9383 53.2518 29.316 50.5694 26.6455 48.1997C24.2398 46.1307 20.4507 42.5822 17.648 43.2318L17.8043 43.1355L17.5638 43.34L17.684 43.1957L17.5277 43.4723L17.5878 43.3039C17.2991 46.9487 20.8958 50.0281 23.1692 52.6624C25.7674 55.2366 28.5822 59.1099 32.6359 58.7731C32.6119 58.7851 32.9246 58.6046 32.9006 58.6167L33.1051 58.3761C33.3456 57.8709 33.2614 57.2334 33.1051 56.7041Z" fill="#01050F"/>
<path d="M34.4282 42.907C34.4282 42.907 34.4763 43.0754 34.4162 43.1235C34.1034 43.1476 33.4539 42.931 33.069 42.7506C32.5397 42.486 32.1788 41.9326 32.0946 41.3432C32.0946 41.3192 32.2149 41.1628 32.2269 41.1508C32.263 41.0906 32.3111 41.0184 32.3833 40.9824C32.4796 40.8861 32.672 40.85 32.7923 40.814C33.7546 41.0906 34.0674 42.1492 34.4282 42.919V42.907ZM34.4282 42.907C34.1275 42.2093 33.2374 41.9928 32.5998 41.9086C32.5998 41.9086 33.069 41.8725 32.9246 41.9086L33.081 41.8123C32.9968 41.8965 33.1893 41.68 33.1772 41.6921C33.1291 41.8364 33.2253 41.2711 33.2133 41.2951C33.4298 41.8845 33.6824 42.9431 34.3801 43.1115C34.4403 43.0754 34.4042 42.9791 34.4162 42.919L34.4282 42.907Z" fill="#01050F"/>
<path d="M45.5309 32.3216C45.5309 32.4058 45.591 32.5381 45.5068 32.6103C44.9655 32.6223 44.328 32.3456 43.7867 32.0449C43.1492 31.66 42.6921 30.9984 42.6199 30.2406C42.68 30.1564 42.7642 30.0241 42.8123 29.9399C42.8845 29.8917 42.9687 29.7955 43.065 29.7715C43.089 29.7715 43.2694 29.6993 43.3055 29.6993C44.5565 30.0361 45.0497 31.3111 45.5309 32.3216ZM45.5309 32.3216C45.1459 31.4074 44.0273 30.9383 43.1612 30.8059C43.1612 30.8059 43.6183 30.7578 43.4499 30.8059L43.6062 30.7097L43.5702 30.7458L43.6905 30.6014L43.6664 30.6375L43.7265 30.2406C43.8468 30.6375 44.0152 31.0706 44.2678 31.5397C44.4964 31.9727 45.0016 32.5501 45.4707 32.5862C45.4707 32.5862 45.5068 32.5501 45.4948 32.5621L45.5188 32.514V32.3216H45.5309Z" fill="#01050F"/>
<path d="M61.2165 29.9158C61.421 30.5894 61.5774 31.4675 61.0361 32.0209C57.3192 33.4042 52.4234 28.2799 49.8733 25.9703C47.5277 23.769 44.9896 21.4956 43.6183 18.4643C43.1612 17.4058 42.8003 16.0706 43.1852 14.8316C43.2574 14.7233 43.3777 14.4467 43.486 14.3865L43.7506 14.17L43.8228 14.1099L43.907 14.0738L44.2438 13.9535C45.3865 13.7731 46.5413 14.1339 47.5156 14.5549C50.2823 15.854 52.3753 18.1636 54.4803 20.2566C57.2109 23.0834 59.9415 26.1387 61.2285 29.9158H61.2165ZM61.2165 29.9158C59.9294 26.1387 57.0425 23.2157 54.1435 20.6055C51.3889 18.2719 48.2494 14.9278 44.4844 15.012C44.8452 14.9158 44.316 15.0842 44.2799 15.1083L44.4362 15.012L44.1836 15.2285L44.3039 15.0842L44.1355 15.3849L44.1957 15.2285C43.8709 19.2462 47.8524 22.5902 50.3544 25.4771C53.2053 28.2799 56.2727 32.5501 60.7113 32.1652C60.6872 32.1772 61.0241 31.9848 61 31.9968L61.2165 31.7442C61.4691 31.1909 61.3849 30.5052 61.2045 29.9158H61.2165Z" fill="#01050F"/>
<path d="M74.1115 36.8083C74.5084 38.1556 74.8091 39.7073 74.1957 41.0305C74.1957 41.0305 73.7145 41.6319 73.7025 41.6319C73.6905 41.6319 73.0168 42.0409 73.0048 42.0409C66.016 43.5445 58.9431 36.5076 53.903 32.4298C48.2735 27.6664 42.9808 22.4338 38.7105 16.3833C36.3288 12.7506 31.1323 6.30313 33.7546 1.8765L33.8027 1.7923L33.8749 1.73216L34.4763 1.251L34.5485 1.19086C34.6207 1.1668 35.3905 0.878107 35.4747 0.85405C42.7281 0.288693 48.2855 5.97835 53.3978 10.2606C58.5461 14.6993 63.2614 19.6672 67.3633 25.0922C70.0698 28.7009 72.7161 32.4779 74.0994 36.8083H74.1115ZM74.1115 36.8083C72.68 32.49 69.9976 28.749 67.255 25.1764C63.093 19.8115 58.2093 15.0722 52.9767 10.7658C47.9848 6.85646 42.4515 1.40738 35.6913 1.88853C36.0882 1.75621 34.9816 2.1652 35.0056 2.15317C35.4988 1.81636 34.5605 2.55012 34.5726 2.56215L34.6929 2.4178L34.2959 3.10345L34.344 2.98316C33.3937 7.63833 37.1828 12.0048 39.5405 15.7939C43.7265 21.7963 48.7666 27.1973 54.2398 32.0569C59.2318 36.3272 65.8597 43.3641 72.9928 41.9808C72.9567 42.0048 73.7145 41.5597 73.6664 41.5958L74.1596 41.0064C74.761 39.7193 74.5084 38.1556 74.1115 36.8083Z" fill="#01050F"/>
<path d="M31.6135 0C39.2518 3.44026 45.8557 8.7931 52.0986 14.3144C58.2454 19.9679 63.923 26.1748 68.6143 33.1034C57.7883 20.5453 45.7955 8.69687 31.6135 0Z" fill="#01050F"/>
<path d="M40.0096 57.8107C30.3865 58.6046 28.5461 51.0866 32.7803 43.737C37.3753 34.5108 57.0064 20.6776 67.3392 25.5613C74.8452 29.6391 69.312 38.9615 65.1018 43.4242C68.6504 38.9014 74.0513 30.0601 66.9423 26.3312C57.2951 22.0249 37.9888 35.5934 33.5261 44.158C29.2678 51.0866 30.8075 58.0393 39.9976 57.8107H40.0096Z" fill="#01050F"/>
<path d="M46.1804 26.68C39.5525 33.4162 31.4571 41.6079 26.4892 48.6568C26.4771 48.6808 26.5613 48.5485 26.5613 48.5485L26.4651 48.7289L26.5493 48.5966C26.6215 48.4162 26.4531 48.7771 26.4531 48.7771C26.5012 48.6808 26.5854 48.5966 26.5613 48.4763L26.4531 48.8131C26.4531 48.8131 26.5734 48.5124 26.5613 48.5124C26.5734 48.5846 26.5132 48.344 26.5373 48.4042L26.6576 48.6447L26.4651 48.8492C26.4651 48.8492 26.5373 48.3561 26.5493 48.4162L26.429 48.2598C26.4771 48.2839 25.9238 48.2839 25.9238 48.2959L26.1644 48.0674L26.4411 48.2719C26.4892 48.2959 26.2847 48.1997 26.2847 48.2117C26.3448 48.2117 25.9358 48.32 25.9358 48.32L26.0802 48.1756L26.2967 48.2117H26.3087C26.3087 48.2117 26.1524 48.2117 26.2125 48.2117L25.9719 48.332L26.2486 48.2117C26.2125 48.2117 26.1885 48.2117 26.1524 48.2237L26.008 48.32L26.2125 48.2117C26.2125 48.2117 26.1885 48.2117 26.1764 48.2117L26.0561 48.2959L26.2125 48.1997C26.2366 48.1876 26.1163 48.2719 26.1163 48.2719L26.1524 48.2358C31.9623 44.1339 37.243 37.4579 42.7281 32.3456C46.6135 28.4122 50.8837 24.0337 54.6728 19.9559C55.996 18.5726 57.668 16.7442 58.4499 15.421C58.4619 15.409 58.4138 15.4691 58.4138 15.4691C58.4258 15.4451 58.4378 15.3849 58.4739 15.3609C58.486 15.3488 58.4378 15.421 58.4378 15.421L58.486 15.3127C58.486 15.3127 58.4378 15.3849 58.4499 15.3849C58.4258 15.5293 58.498 15.2767 58.498 15.2767L58.4499 15.409L58.4739 15.4571L58.4138 15.3248L58.498 15.2406L58.4739 15.4451C58.4378 15.397 58.5581 15.5293 58.51 15.4932L58.7145 15.4691L58.6183 15.5654L58.51 15.4932C58.4739 15.4691 58.5702 15.5052 58.5702 15.5052C58.51 15.5052 58.7025 15.4571 58.6905 15.4571C58.6183 15.5413 58.6183 15.5172 58.5341 15.5052H58.5822H58.5581L58.6544 15.4571L58.5461 15.5052L58.6063 15.4691L58.5942 15.4812C58.5702 15.4932 58.5341 15.5172 58.51 15.5172L58.5581 15.4812C58.5461 15.4932 58.51 15.5172 58.498 15.5172L58.4619 15.5293L58.498 15.5052C58.498 15.5052 58.4258 15.5533 58.3897 15.5654L58.4258 15.5413L58.4138 15.5654C54.4082 18.1395 49.741 23.4202 46.2045 26.6921L46.1804 26.68ZM46.1804 26.68C49.6447 23.348 54.6247 17.7426 58.2935 15.2406L58.3777 15.2045L58.3176 15.2406L58.3416 15.2165H58.3657L58.4499 15.1804C58.4499 15.1804 58.3657 15.2285 58.3777 15.2165C58.4138 15.1804 58.486 15.1684 58.5341 15.1564L58.4258 15.2045L58.4619 15.1684H58.6063L58.4619 15.2165L58.5221 15.1564H58.6544L58.6905 15.1804L58.486 15.2045L58.5822 15.1083L58.7025 15.1804L58.7386 15.2045L58.7626 15.2406L58.8228 15.3488L58.7265 15.4451L58.7506 15.2406C58.7626 15.2406 58.7747 15.2887 58.7747 15.3007C58.7867 15.397 58.7987 15.3849 58.7265 15.4571L58.7747 15.3007C58.7747 15.3609 58.7747 15.4571 58.7265 15.4932L58.7747 15.3849C58.7747 15.421 58.7506 15.4691 58.7506 15.5052L58.7145 15.5413L58.7626 15.4691L58.7386 15.5533C58.7386 15.5533 58.7145 15.6014 58.7025 15.6014L58.7386 15.5413C58.7265 15.5654 58.7025 15.6255 58.6905 15.6496L58.6664 15.6736L58.7025 15.6255C57.8003 17.1893 56.3569 18.8252 55.0938 20.2686C51.4371 24.4908 47.3713 29.0497 43.4739 33.0072L39.4563 37.1211C35.2943 41.1147 31.6255 45.6135 26.6937 48.7771C26.6937 48.7771 26.7779 48.7169 26.7538 48.7289L26.7057 48.7771L26.6696 48.7891L26.5613 48.8372C26.5613 48.8372 26.6937 48.741 26.6696 48.765L26.6095 48.8131H26.5734L26.4651 48.8733L26.6095 48.7771L26.5493 48.8372C26.5012 48.8492 26.417 48.8974 26.3569 48.8974L26.5493 48.7891L26.4771 48.8613L26.405 48.8853C25.996 48.9936 26.4531 48.8252 26.5012 48.8011L26.3929 48.9094H26.1283L26.1163 48.8974L26.4771 48.7891L26.3208 48.9455L26.1163 48.8974H26.1043L26.008 48.8733L25.9479 48.8252L26.4651 48.7891L26.2125 49.0176L25.9479 48.8131L25.8637 48.741L25.8276 48.6568V48.6447L25.7193 48.3801L25.9118 48.1997L25.8276 48.6447V48.6327L25.7915 48.5605C25.7915 48.5485 25.7915 48.4884 25.7915 48.4763V48.2959L25.9118 48.1756L25.8035 48.5124C25.8035 48.3801 25.8035 48.2117 25.9118 48.1395L25.8035 48.3801C25.8035 48.3079 25.8516 48.2237 25.8637 48.1516L25.9238 48.0914L25.8276 48.2719L25.8998 48.0914L25.9599 48.0313L25.8757 48.1636L25.9238 48.0553C31.0722 41.3432 39.6488 33.2117 46.2045 26.6079L46.1804 26.68Z" fill="#01050F"/>
<path d="M28.065 44.0497C33.4058 42.1852 37.7241 38.2999 41.1043 33.8733C46.5052 26.7883 54.4804 10.838 44.5926 4.54691C39.3841 2.36969 33.5621 5.73777 29.328 8.7931C33.4539 5.23256 39.348 1.59984 44.9535 3.75301C55.8757 10.1885 47.8524 27.0289 41.7779 34.4146C38.2173 38.769 33.5982 42.6303 28.065 44.0497Z" fill="#01050F"/>
<path d="M5.60706 29.3504C11.8861 45.5413 31.4691 47.6824 41.0682 33.2959C47.7081 23.7089 46.7819 9.22614 37.7602 1.35926C49.0674 9.99599 48.7426 28.3761 38.6624 37.8909C27.5357 48.8492 10.178 44.0858 5.59503 29.3504H5.60706Z" fill="#01050F"/>
<path d="M1 31.7201C10.3344 47.6584 35.2221 47.4058 42.7642 30.0722C46.9503 20.3649 42.3793 8.69687 33.4779 3.24779C42.9326 8.22775 48.0208 20.437 43.7265 30.4571C36.1965 48.5726 9.80513 48.8853 1.01203 31.7081L1 31.7201Z" fill="#01050F"/>
<path d="M3.45389 40.2967C12.8123 52.4218 34.5846 43.8573 41.5734 32.8869C47.1427 25.0321 45.7594 14.567 35.9679 11.1508C46.3849 13.9655 48.1652 25.2967 42.4274 33.4523C37.3633 41.0786 28.5221 45.9984 19.4523 46.8284C13.5341 47.3456 6.64154 45.7578 3.44186 40.2967H3.45389Z" fill="#01050F"/>
<path d="M24.1195 36.0746C21.9062 38.3961 19.6087 40.6456 17.5397 43.0754C15.591 45.421 13.2935 47.9832 12.6079 50.9663C12.247 57.7265 24.9976 47.9952 27.0786 46.3833C34.753 40.7538 42.0305 34.2342 47.1788 26.1868C47.8765 25.008 48.6223 23.0112 47.0946 22.2053C45.6271 21.652 43.9551 22.4218 42.5357 22.915C43.2574 22.5782 43.9912 22.2414 44.7731 22.0128C46.4571 21.3994 48.5621 21.8805 48.4058 24.0698C48.1411 26.5597 46.3368 28.5204 45.0136 30.4932C44.0754 31.8043 43.077 33.0794 42.0305 34.3063C37.8444 39.2261 32.9006 43.4362 27.7522 47.2855C24.6728 49.3905 15.8196 56.6079 12.3432 53.4563C11.6335 52.7105 11.5734 51.6399 11.7418 50.7979C12.6199 47.514 14.9535 45.1203 17.1187 42.6905C19.344 40.3689 21.7137 38.2037 24.1075 36.0625L24.1195 36.0746Z" fill="#01050F"/>
<path d="M24.769 64.9078C19.1034 59.9038 31.9503 43.737 35.6552 39.3825C38.9631 35.7618 48.9591 26.0425 54.0834 28.3881C56.5132 29.8196 55.6231 33.1516 54.8773 35.3047C55.9599 31.5998 55.4908 27.2093 50.5229 28.9896C45.0617 31.4675 40.4908 35.7017 36.4972 40.1163C32.9727 44.2061 19.7891 60.0842 24.769 64.8837V64.9078Z" fill="#01050F"/>
<path d="M37.0986 73.1476C31.5172 69.8276 29.34 63.0072 29.5325 56.8003C29.8933 45.8781 36.7618 34.5589 47.4314 31.0706C55.2622 28.2799 64.0553 32.923 66.3047 40.8621C63.5982 33.4042 55.2261 29.17 47.7322 31.9968C32.5277 36.9046 23.1812 62.2735 37.0986 73.1355V73.1476Z" fill="#01050F"/>
<path d="M44.6287 74.3986C27.4034 65.7498 27.1147 39.8516 45.3023 32.1652C55.1901 27.8949 67.3272 32.3937 72.8605 41.4034C66.8821 32.9591 55.2743 28.9535 45.6993 33.1155C28.2815 40.8019 28.6544 65.2205 44.6287 74.3986Z" fill="#01050F"/>
</g>
<defs>
<clipPath id="clip0_9856_16620">
<rect width="75" height="75" fill="white" transform="translate(0.5)"/>
</clipPath>
</defs>
</svg>
