<svg width="76" height="75" viewBox="0 0 76 75" fill="none" xmlns="http://www.w3.org/2000/svg">
<g clip-path="url(#clip0_9929_15759)">
<path d="M68.5056 6H7.57865C5.72472 6 3.95506 6.756 2.60674 8.1C1.25843 9.36 0.5 11.208 0.5 13.056V62.028C0.5 63.876 1.25843 65.64 2.52247 66.984C3.95506 68.328 5.72472 69 7.57865 69H68.5056C70.3595 69 72.1292 68.244 73.4775 66.984C74.8258 65.64 75.5 63.876 75.5 62.028V13.056C75.5 11.208 74.7416 9.444 73.4775 8.1C72.1292 6.756 70.3595 6 68.5056 6ZM63.7865 13.056H68.5056V17.76H63.7865V13.056ZM56.7921 13.056H61.5112V17.76H56.7921V13.056ZM49.7135 13.056H54.4326V17.76H49.7135V13.056ZM70.8652 62.028C70.8652 62.616 70.6124 63.204 70.191 63.708C69.7697 64.128 69.1798 64.38 68.5056 64.38H47.4382V57.66C50.9775 55.476 53.5899 52.116 54.8539 48.168C56.118 44.22 55.9494 40.02 54.3483 36.156C52.7472 32.376 49.882 29.184 46.1742 27.336C45.4157 27 44.573 27 43.8989 27.42C43.2247 27.84 42.8034 28.596 42.8034 29.436V40.524H33.3652V29.352C33.3652 28.512 32.9438 27.756 32.2697 27.336C31.5955 26.916 30.6685 26.916 29.9944 27.252C26.2865 29.184 23.4213 32.292 21.8202 36.072C20.2191 39.852 20.0506 44.136 21.3146 48.084C22.5787 52.032 25.191 55.392 28.7303 57.576V64.296H7.66292C7.07303 64.296 6.48315 64.044 5.97753 63.624C5.47191 63.204 5.30337 62.616 5.30337 61.944V24.732H70.9494L70.8652 62.028Z" fill="#01050F"/>
</g>
<defs>
<clipPath id="clip0_9929_15759">
<rect width="75" height="75" fill="white" transform="translate(0.5)"/>
</clipPath>
</defs>
</svg>
