<svg xmlns="http://www.w3.org/2000/svg" width="253.97" height="53.846" viewBox="0 0 253.97 53.846"><defs><style>.a{fill:#fff;}</style></defs><g transform="translate(478.5 101.45)"><path class="a" d="M251.582,45.539h-4.193A2.388,2.388,0,0,1,245,43.177V26.485a9,9,0,0,0-9.023-8.917h-6.9a2.388,2.388,0,0,0-2.388,2.362V43.178a2.388,2.388,0,0,1-2.388,2.362h-4.193a2.388,2.388,0,0,1-2.388-2.362V11.04a2.388,2.388,0,0,1,2.388-2.362h15.87A17.954,17.954,0,0,1,253.97,26.14h0V43.178a2.388,2.388,0,0,1-2.388,2.362Zm-56-.08a18.352,18.352,0,1,1,18.55-18.338A18.479,18.479,0,0,1,195.586,45.46Zm0-27.945a9.607,9.607,0,1,0,9.686,9.607,9.607,9.607,0,0,0-9.686-9.607ZM162.758,36.6a9.713,9.713,0,0,0,6.343-1.539,2.388,2.388,0,0,1,3,.265l3.052,3.025a2.309,2.309,0,0,1-.239,3.5,18.639,18.639,0,0,1-29.7-16.162,18.644,18.644,0,0,1,29.67-13.349,2.309,2.309,0,0,1,.239,3.5l-3.052,3.025a2.388,2.388,0,0,1-2.972.292A9.577,9.577,0,1,0,162.758,36.6Zm-23.592,9.023-16.215-.08a18.418,18.418,0,1,1,0-36.835l16.215-.08a2.388,2.388,0,0,1,2.415,2.362v32.27a2.388,2.388,0,0,1-2.415,2.362ZM132.611,19.93a2.388,2.388,0,0,0-2.388-2.362h-7.271a9.607,9.607,0,0,0-9.633,9.9,9.742,9.742,0,0,0,9.872,9.182h7.033a2.388,2.388,0,0,0,2.388-2.362ZM98.828,45.539H94.662a2.388,2.388,0,0,1-2.388-2.362V26.485a9,9,0,0,0-9.023-8.917h-6.9a2.388,2.388,0,0,0-2.388,2.362V43.178a2.388,2.388,0,0,1-2.388,2.362h-4.22a2.388,2.388,0,0,1-2.388-2.362V11.04a2.388,2.388,0,0,1,2.388-2.362h15.87A17.913,17.913,0,0,1,101.19,26.14h0V43.178a2.388,2.388,0,0,1-2.362,2.362Zm-71.6,8.306A27.1,27.1,0,0,1,0,26.936a27.216,27.216,0,0,1,54.43,0A27.076,27.076,0,0,1,27.228,53.846Zm.69-36.012c2.2-1.035,7.7-4.22,10.536-5.467a8.524,8.524,0,0,1,4.405-3.211,18.752,18.752,0,0,0-14.968,8.7Zm22.053-3.5c2.335,8.625-1.115,21.045-14.41,26.963a4.034,4.034,0,0,1-2.07.372,6.142,6.142,0,0,1-3.821-1.752c-.663-.8-.4-.61.186-1.194a19.192,19.192,0,0,0,4.166-20.886c2.972-1.592,4.538-2.468,7.112-3.636,1.088-.478,3.45-1.062,4.485,2.919A23.068,23.068,0,0,1,40.205,37.18h.027l-.239.265.292-.318a22.977,22.977,0,0,0,6.98-20.036c-.663-5.414-3.025-4.989-5.069-4.14-3.078,1.3-7.165,3.742-9.739,5.175A38.789,38.789,0,0,1,26.3,21.018a19.152,19.152,0,0,0-.186,12.765,15.969,15.969,0,0,1-3.636-13.694,4.088,4.088,0,0,0-4.644-1.831,29.51,29.51,0,0,0,1.725,11.783A16.383,16.383,0,0,1,19,7.245c-1.645,2.919-.663,7.271-.663,7.271s1.035-6.1,4.007-10.031a17.356,17.356,0,0,1,3.53-1.566A17.117,17.117,0,0,0,13.216,15.127,17.966,17.966,0,0,0,8.811,26.91c0,10,8.227,18.63,18.338,18.656A24.2,24.2,0,0,0,51.059,21.522a25.105,25.105,0,0,0-1.088-7.192Z" transform="translate(-478.5 -101.45)"/></g></svg>