<svg width="76" height="75" viewBox="0 0 76 75" fill="none" xmlns="http://www.w3.org/2000/svg">
<g clip-path="url(#clip0_9856_16656)">
<path d="M55.3237 72.7356C52.504 74.4507 50.2734 74.7032 48.7583 74.9347C46.0753 75.345 46.1594 73.7142 43.8763 73.0618C42.277 72.178 40.9513 70.2105 40.5409 69.0741C33.9965 69.7265 27.1996 67.8957 22.77 66.2649C18.3404 64.634 20.4131 62.3193 20.9813 60.2465C21.5495 58.1738 24.6428 48.0836 24.8848 37.9198C24.9269 36.7413 25.3688 35.9627 27.9361 35.6471L28.0202 34.4266C28.0202 34.4266 26.1474 34.5108 23.9484 34.4266C21.7494 34.3424 21.7915 33.1219 21.7494 30.5231C21.7073 27.9243 21.297 18.2444 21.4653 16.8135C21.6337 15.3825 22.1597 14.6145 23.0961 13.394C24.0326 12.1735 24.4429 12.0472 26.1053 12.0472C26.0632 10.2585 25.453 9.03803 26.8734 7.94379C28.2938 6.84955 28.2202 5.74478 30.8611 5.70269C33.502 5.66061 39.5203 3.78777 40.7829 3.2196C42.0455 2.65144 42.8241 1.51511 44.5286 1.34676C46.2331 1.17842 54.1979 0.126259 55.3027 0V72.7146L55.3237 72.7356Z" stroke="#01050F" stroke-miterlimit="10"/>
<path d="M27.9346 35.6466C27.9346 35.6466 32.8166 34.0999 34.6052 33.8579C36.3939 33.6159 36.8463 33.5317 36.8463 33.5317C36.8463 33.5317 42.7805 67.1271 43.0646 68.4213C43.0646 68.4213 42.6963 68.9474 40.5394 69.0736" stroke="#01050F" stroke-width="0.94" stroke-miterlimit="10"/>
<path d="M28.0195 34.426L36.521 32.3638" stroke="#01050F" stroke-width="0.94" stroke-miterlimit="10"/>
<path d="M36.8472 33.5322C36.8472 33.5322 36.3948 32.5116 36.237 29.6286C36.0792 26.7457 36.7631 13.1624 26.1152 12.0576" stroke="#01050F" stroke-width="0.94" stroke-miterlimit="10"/>
<path d="M23.1807 34.3318C25.6638 32.5221 29.9671 30.523 36.2905 30.4072" stroke="#01050F" stroke-width="0.94" stroke-miterlimit="10"/>
<path d="M30.0206 31.3434C28.7054 30.1229 29.263 28.1764 29.0421 26.6087C28.6528 22.0634 26.9483 16.3712 21.9189 15.2139C27.0324 16.2555 28.9053 21.9898 29.4103 26.5772C29.6944 28.0818 29.1262 29.8704 30.3783 31.0068L30.01 31.3434H30.0206Z" fill="#01050F"/>
<path d="M33.6164 30.7439C33.2377 30.4809 32.8378 29.9653 32.7852 29.4813C32.5432 28.0715 32.659 26.6616 32.5222 25.2622C32.2486 19.9593 30.1759 13.2571 24.126 12.3838C30.2495 13.1413 32.5012 19.8962 32.8904 25.2412C33.0483 26.6195 32.9746 28.0399 33.2271 29.3972C33.3113 29.8601 33.5112 30.0811 33.9216 30.3862L33.5954 30.765L33.6164 30.7439Z" fill="#01050F"/>
<path d="M21.8008 33.1429C25.9358 30.1127 31.2176 29.1236 36.2364 29.6392C31.2912 29.4708 26.2304 30.7334 22.4005 33.9425L21.8113 33.1534L21.8008 33.1429Z" fill="#01050F"/>
<path d="M20.0447 62.8878C27.4835 62.5827 31.9025 48.7468 32.881 42.5601C33.3755 39.7403 33.6807 36.889 33.7859 34.0166C33.7227 36.8785 33.4597 39.7403 33.0073 42.5812C32.0709 48.9888 27.8096 63.0246 20.0342 63.3823L20.0552 62.8878H20.0447Z" fill="#01050F"/>
<path d="M22.4531 66.1489C26.8722 64.5181 34.1531 55.2907 35.6472 33.7109" stroke="#01050F" stroke-width="0.94" stroke-miterlimit="10"/>
<path d="M43.0649 68.4326C43.591 70.3896 43.8751 71.0735 42.865 70.7474C41.855 70.4212 41.3604 69.4216 41.3184 69.0113" stroke="#01050F" stroke-width="0.94" stroke-miterlimit="10"/>
<path d="M47.6644 74.9869C48.401 73.9979 47.4645 72.9037 45.6338 65.4649C43.803 58.0262 41.5619 43.1381 41.3199 40.8234C41.0779 38.5086 39.9732 28.6605 39.4471 25.2936C38.921 21.9266 40.4677 7.60678 28.168 6.69141" stroke="#01050F" stroke-miterlimit="10"/>
<path d="M26.1466 8.5752C32.6595 9.63787 35.6897 15.6983 36.3947 21.6851C36.6998 23.621 36.7734 25.5675 36.8471 27.514C36.6893 25.5781 36.5314 23.6316 36.1421 21.7272C35.2373 16.0771 32.186 10.2692 25.9678 9.5537L26.1466 8.5752Z" fill="#01050F"/>
<path d="M36.3213 30.7753C40.6667 30.1966 51.8511 29.8284 55.3022 29.8705" stroke="#01050F" stroke-width="0.47" stroke-miterlimit="10"/>
<path d="M29.3042 35.3101C28.9886 44.5059 27.7575 54.1016 23.1807 62.2137C27.5997 54.0595 28.6624 44.4533 28.8097 35.3101H29.3042Z" fill="#01050F"/>
<g opacity="0.3">
<path d="M40.5839 69.2103C34.0395 69.8627 27.2425 68.0319 22.8129 66.4011C18.3834 64.7702 20.4561 62.4555 21.0243 60.3827C21.5924 58.31 24.6858 48.2198 24.9278 38.056C24.9699 36.8775 25.4118 36.0989 27.979 35.7833C27.979 35.7833 32.8611 34.2366 34.6497 33.9946C36.4384 33.7526 36.8908 33.6685 36.8908 33.6685C36.8908 33.6685 42.825 67.2638 43.1091 68.558C43.1091 68.558 42.7408 69.0841 40.5839 69.2103Z" fill="#01050F" stroke="#01050F" stroke-width="0.47" stroke-miterlimit="10"/>
<path d="M20.0877 63.0235C27.5264 62.7184 31.9455 48.8826 32.924 42.6959C33.4185 39.8761 33.7236 37.0247 33.8288 34.1523C33.7657 37.0142 33.5027 39.8761 33.0503 42.7169C32.1138 49.1245 27.8526 63.1603 20.0771 63.5181L20.0982 63.0235H20.0877Z" fill="#01050F"/>
<path d="M22.8135 65.9384C27.2325 64.3075 34.1136 56.1112 35.6077 34.542" stroke="#01050F" stroke-width="0.94" stroke-miterlimit="10" stroke-linecap="round"/>
<path d="M29.3472 35.436C29.0315 44.6319 27.8005 54.2276 23.2236 62.3397C27.6427 54.1855 28.7054 44.5793 28.8527 35.436H29.3472Z" fill="#01050F"/>
</g>
<mask id="mask0_9856_16656" style="mask-type:luminance" maskUnits="userSpaceOnUse" x="20" y="33" width="24" height="37">
<path d="M40.5839 69.2103C34.0395 69.8627 27.2425 68.0319 22.8129 66.4011C18.3834 64.7702 20.4561 62.4555 21.0243 60.3827C21.5924 58.31 24.6858 48.2198 24.9278 38.056C24.9699 36.8775 25.4118 36.0989 27.979 35.7833C27.979 35.7833 32.8611 34.2366 34.6497 33.9946C36.4384 33.7526 36.8908 33.6685 36.8908 33.6685C36.8908 33.6685 42.825 67.2638 43.1091 68.558C43.1091 68.558 42.7408 69.0841 40.5839 69.2103Z" fill="white"/>
</mask>
<g mask="url(#mask0_9856_16656)">
<path d="M48.8854 68.1585C42.583 70.0839 35.544 69.4105 30.8619 68.5162C26.1798 67.6219 27.737 64.76 27.8738 62.4453C28.0106 60.1305 28.9891 48.8198 27.1583 37.951C26.9584 36.6884 27.2425 35.7836 29.694 34.9524C29.694 34.9524 34.1762 32.3851 35.8807 31.7959C37.5852 31.1962 38.0061 31.0278 38.0061 31.0278C38.0061 31.0278 50.6846 65.6649 51.2317 67.0011C51.2317 67.0011 50.9792 67.6219 48.8854 68.169V68.1585Z" fill="#01050F" stroke="#F7FAFF" stroke-width="0.5" stroke-miterlimit="10"/>
<path d="M27.4949 65.4437C34.86 63.6971 36.2699 47.536 35.9437 41.2125C35.849 38.1612 35.5755 35.1205 35.0915 32.1113C35.607 35.1205 35.9332 38.1612 36.0595 41.2125C36.4593 47.7674 35.2914 64.0548 27.558 65.9382L27.4844 65.4437H27.4949Z" fill="#F7FAFF"/>
<path d="M30.7568 68.0105C34.7656 65.4433 39.858 55.4267 36.9225 32.1846" stroke="#F7FAFF" stroke-miterlimit="10" stroke-linecap="round"/>
<path d="M30.9673 34.3203C32.5139 44.1264 33.3031 54.4902 30.4307 64.1174C33.1347 54.4797 32.1772 44.1475 30.4833 34.415L30.9673 34.3203Z" fill="#F7FAFF"/>
</g>
</g>
<defs>
<clipPath id="clip0_9856_16656">
<rect width="75" height="75" fill="white" transform="translate(0.5)"/>
</clipPath>
</defs>
</svg>
